<svg width="729" height="221" viewBox="0 0 729 221" fill="none" xmlns="http://www.w3.org/2000/svg">
<path d="M41.9961 201.139V205.094H31.0537V201.139H41.9961ZM32.7676 192.672V214H27.626V192.672H32.7676ZM45.4531 192.672V214H40.3262V192.672H45.4531ZM104.12 202.911V203.775C104.12 205.406 103.891 206.871 103.432 208.17C102.982 209.459 102.343 210.563 101.513 211.481C100.683 212.389 99.7012 213.087 98.5684 213.575C97.4355 214.054 96.1855 214.293 94.8184 214.293C93.4414 214.293 92.1816 214.054 91.0391 213.575C89.9062 213.087 88.9199 212.389 88.0801 211.481C87.25 210.563 86.6055 209.459 86.1465 208.17C85.6973 206.871 85.4727 205.406 85.4727 203.775V202.911C85.4727 201.28 85.6973 199.815 86.1465 198.517C86.6055 197.218 87.2451 196.114 88.0654 195.206C88.8955 194.288 89.877 193.59 91.0098 193.111C92.1523 192.623 93.4121 192.379 94.7891 192.379C96.1562 192.379 97.4062 192.623 98.5391 193.111C99.6816 193.59 100.668 194.288 101.498 195.206C102.328 196.114 102.973 197.218 103.432 198.517C103.891 199.815 104.12 201.28 104.12 202.911ZM98.9053 203.775V202.882C98.9053 201.827 98.8125 200.899 98.627 200.099C98.4512 199.288 98.1875 198.609 97.8359 198.063C97.4844 197.516 97.0498 197.106 96.5322 196.832C96.0244 196.549 95.4434 196.407 94.7891 196.407C94.1055 196.407 93.5098 196.549 93.002 196.832C92.4941 197.106 92.0693 197.516 91.7275 198.063C91.3857 198.609 91.127 199.288 90.9512 200.099C90.7852 200.899 90.7021 201.827 90.7021 202.882V203.775C90.7021 204.82 90.7852 205.748 90.9512 206.559C91.127 207.359 91.3857 208.038 91.7275 208.595C92.0791 209.151 92.5088 209.571 93.0166 209.855C93.5342 210.138 94.1348 210.279 94.8184 210.279C95.4727 210.279 96.0537 210.138 96.5615 209.855C97.0693 209.571 97.4941 209.151 97.8359 208.595C98.1875 208.038 98.4512 207.359 98.627 206.559C98.8125 205.748 98.9053 204.82 98.9053 203.775ZM155.712 192.672H160.854V206.603C160.854 208.263 160.507 209.669 159.813 210.821C159.12 211.964 158.148 212.828 156.898 213.414C155.648 214 154.179 214.293 152.489 214.293C150.819 214.293 149.35 214 148.08 213.414C146.82 212.828 145.834 211.964 145.121 210.821C144.418 209.669 144.066 208.263 144.066 206.603V192.672H149.223V206.603C149.223 207.482 149.35 208.199 149.604 208.756C149.857 209.303 150.229 209.703 150.717 209.957C151.205 210.211 151.796 210.338 152.489 210.338C153.192 210.338 153.783 210.211 154.262 209.957C154.74 209.703 155.102 209.303 155.346 208.756C155.59 208.199 155.712 207.482 155.712 206.603V192.672ZM212.431 208.331C212.431 207.999 212.382 207.701 212.284 207.438C212.187 207.164 212.006 206.91 211.742 206.676C211.479 206.441 211.098 206.207 210.6 205.973C210.111 205.729 209.467 205.475 208.666 205.211C207.729 204.898 206.825 204.547 205.956 204.156C205.087 203.756 204.311 203.292 203.627 202.765C202.943 202.228 202.401 201.603 202.001 200.89C201.601 200.167 201.4 199.327 201.4 198.37C201.4 197.452 201.605 196.627 202.016 195.895C202.426 195.152 202.997 194.523 203.729 194.005C204.472 193.478 205.341 193.077 206.337 192.804C207.333 192.521 208.422 192.379 209.604 192.379C211.166 192.379 212.543 192.652 213.734 193.199C214.936 193.736 215.873 194.503 216.547 195.499C217.23 196.485 217.572 197.652 217.572 199H212.46C212.46 198.463 212.348 197.989 212.123 197.579C211.908 197.169 211.581 196.847 211.142 196.612C210.702 196.378 210.15 196.261 209.486 196.261C208.842 196.261 208.3 196.358 207.86 196.554C207.421 196.749 207.089 197.013 206.864 197.345C206.64 197.667 206.527 198.023 206.527 198.414C206.527 198.736 206.615 199.029 206.791 199.293C206.977 199.547 207.235 199.786 207.567 200.011C207.909 200.235 208.319 200.45 208.798 200.655C209.286 200.86 209.833 201.061 210.438 201.256C211.571 201.617 212.577 202.023 213.456 202.472C214.345 202.911 215.092 203.414 215.697 203.981C216.312 204.537 216.776 205.172 217.089 205.885C217.411 206.598 217.572 207.403 217.572 208.302C217.572 209.259 217.387 210.108 217.016 210.851C216.645 211.593 216.112 212.223 215.419 212.74C214.726 213.248 213.896 213.634 212.929 213.898C211.962 214.161 210.883 214.293 209.691 214.293C208.598 214.293 207.519 214.156 206.454 213.883C205.399 213.6 204.442 213.17 203.583 212.594C202.724 212.008 202.035 211.261 201.518 210.353C201.01 209.435 200.756 208.346 200.756 207.086H205.912C205.912 207.711 205.995 208.238 206.161 208.668C206.327 209.098 206.571 209.444 206.894 209.708C207.216 209.962 207.611 210.148 208.08 210.265C208.549 210.372 209.086 210.426 209.691 210.426C210.346 210.426 210.873 210.333 211.273 210.148C211.674 209.952 211.967 209.698 212.152 209.386C212.338 209.064 212.431 208.712 212.431 208.331ZM272.255 210.045V214H260.888V210.045H272.255ZM262.719 192.672V214H257.577V192.672H262.719ZM270.79 201.139V204.962H260.888V201.139H270.79ZM272.299 192.672V196.642H260.888V192.672H272.299Z" fill="#7E5000"/>
<g filter="url(#filter0_d_15_99)">
<path d="M222.527 7.35098H184.42C175.528 7.35098 170.13 16.7836 168.542 21.4999C164.96 28.0143 158.805 30.4347 153.235 42.2804C152.852 43.0942 152.72 44.0022 152.834 44.8943C153.382 49.1813 154.275 55.2589 155.269 61.7234C155.938 66.0702 156.651 70.5919 157.335 74.8618C158.283 80.7763 159.174 86.2076 159.809 90.0213H35.1679C25.6412 90.0213 20.6132 99.4539 19.2901 104.17L6.06806 177.108C5.51182 180.177 7.86942 183 10.9879 183H79.626H91.5343H194.802H312.009C314.771 183 316.548 180.815 315.327 178.339C314.242 176.14 313.031 173.318 313.031 168.851C313.666 165.617 309.855 158.071 305.885 157.734H259.84C252.218 112.458 233.377 93.727 224.908 90.0213V61.7234H240.327C243.662 61.7234 246.063 58.5201 245.126 55.3191L235.229 21.4999C233.324 10.1808 225.967 7.35098 222.527 7.35098Z" fill="#FFBA43"/>
<path d="M224.908 61.7234V90.0213C233.377 93.727 252.218 112.458 259.84 157.734C287.785 157.734 302.181 157.734 305.885 157.734C309.855 158.071 313.666 165.617 313.031 168.851C313.031 173.318 314.242 176.14 315.327 178.339C316.548 180.815 314.771 183 312.009 183C294.944 183 237.606 183 194.802 183M224.908 61.7234H240.327C243.662 61.7234 246.063 58.5201 245.126 55.3191L235.229 21.4999C233.324 10.1808 225.967 7.35098 222.527 7.35098H184.42C175.528 7.35098 170.13 16.7836 168.542 21.4999C164.96 28.0143 158.805 30.4347 153.235 42.2804C152.852 43.0942 152.72 44.0022 152.834 44.8943C153.382 49.1813 154.275 55.2589 155.269 61.7234M224.908 61.7234H216.5M159.809 90.0213C122.232 90.0213 44.6947 90.0213 35.1679 90.0213C25.6412 90.0213 20.6132 99.4539 19.2901 104.17L6.06806 177.108C5.51182 180.177 7.86942 183 10.9879 183H79.626M159.809 90.0213H198.71V25M159.809 90.0213C159.174 86.2076 158.283 80.7763 157.335 74.8618M91.5343 183H79.626M91.5343 183C91.5343 183 157.597 183 194.802 183M91.5343 183C90.8562 175.667 88.2 161.5 83 163.5C75.8 163.5 50.6667 163.5 39 163.5M155.269 61.7234H175.687M155.269 61.7234C155.938 66.0702 156.651 70.5919 157.335 74.8618M157.335 74.8618H168.542M79.626 183C79.584 178.833 78.6 170.8 75 172M194.802 183C194.972 176.333 190.5 163.5 190.5 163.5" stroke="#7E5000" stroke-width="2.5"/>
</g>
<path d="M77.1738 169H61.6953L61.793 157.574H77.1738C81.015 157.574 84.2539 156.712 86.8906 154.986C89.5273 153.229 91.513 150.673 92.8477 147.32C94.2148 143.968 94.8984 139.915 94.8984 135.162V131.695C94.8984 128.05 94.5078 124.843 93.7266 122.076C92.9779 119.309 91.8548 116.982 90.3574 115.094C88.86 113.206 87.0208 111.79 84.8398 110.846C82.6589 109.869 80.1523 109.381 77.3203 109.381H61.4023V97.9063H77.3203C82.0729 97.9063 86.4186 98.7201 90.3574 100.348C94.3288 101.943 97.763 104.238 100.66 107.232C103.557 110.227 105.787 113.808 107.35 117.975C108.945 122.109 109.742 126.715 109.742 131.793V135.162C109.742 140.208 108.945 144.814 107.35 148.981C105.787 153.147 103.557 156.728 100.66 159.723C97.7956 162.685 94.3613 164.98 90.3574 166.607C86.3861 168.203 81.9915 169 77.1738 169ZM69.9961 97.9063V169H55.3477V97.9063H69.9961Z" fill="white"/>
<path d="M129.812 135.477V152H124.188V130.867H129.48L129.812 135.477ZM136.18 130.731L136.082 135.945C135.809 135.906 135.477 135.874 135.086 135.848C134.708 135.809 134.363 135.789 134.051 135.789C133.257 135.789 132.566 135.893 131.98 136.102C131.408 136.297 130.926 136.59 130.535 136.981C130.158 137.371 129.871 137.846 129.676 138.406C129.493 138.966 129.389 139.604 129.363 140.32L128.23 139.969C128.23 138.602 128.367 137.345 128.641 136.199C128.914 135.04 129.311 134.031 129.832 133.172C130.366 132.313 131.017 131.648 131.785 131.18C132.553 130.711 133.432 130.477 134.422 130.477C134.734 130.477 135.053 130.503 135.379 130.555C135.704 130.594 135.971 130.652 136.18 130.731ZM148.172 152.391C146.531 152.391 145.06 152.13 143.758 151.609C142.456 151.076 141.349 150.34 140.438 149.402C139.539 148.465 138.849 147.378 138.367 146.141C137.885 144.891 137.645 143.563 137.645 142.156V141.375C137.645 139.773 137.872 138.309 138.328 136.981C138.784 135.652 139.435 134.5 140.281 133.523C141.141 132.547 142.182 131.798 143.406 131.277C144.63 130.744 146.01 130.477 147.547 130.477C149.044 130.477 150.372 130.724 151.531 131.219C152.69 131.714 153.66 132.417 154.441 133.328C155.236 134.24 155.835 135.333 156.238 136.609C156.642 137.872 156.844 139.279 156.844 140.828V143.172H140.047V139.422H151.316V138.992C151.316 138.211 151.173 137.514 150.887 136.902C150.613 136.277 150.197 135.783 149.637 135.418C149.077 135.053 148.361 134.871 147.488 134.871C146.746 134.871 146.108 135.034 145.574 135.359C145.04 135.685 144.604 136.141 144.266 136.727C143.94 137.313 143.693 138.003 143.523 138.797C143.367 139.578 143.289 140.438 143.289 141.375V142.156C143.289 143.003 143.406 143.784 143.641 144.5C143.888 145.216 144.233 145.835 144.676 146.356C145.132 146.876 145.678 147.28 146.316 147.566C146.967 147.853 147.703 147.996 148.523 147.996C149.539 147.996 150.483 147.801 151.355 147.41C152.241 147.007 153.003 146.401 153.641 145.594L156.375 148.563C155.932 149.201 155.327 149.813 154.559 150.398C153.803 150.984 152.892 151.466 151.824 151.844C150.757 152.208 149.539 152.391 148.172 152.391ZM171.453 147.234V137.82C171.453 137.143 171.342 136.564 171.121 136.082C170.9 135.587 170.555 135.203 170.086 134.93C169.63 134.656 169.038 134.52 168.309 134.52C167.684 134.52 167.143 134.63 166.688 134.852C166.232 135.06 165.88 135.366 165.633 135.77C165.385 136.16 165.262 136.622 165.262 137.156H159.637C159.637 136.258 159.845 135.405 160.262 134.598C160.678 133.79 161.284 133.081 162.078 132.469C162.872 131.844 163.816 131.356 164.91 131.004C166.017 130.652 167.254 130.477 168.621 130.477C170.262 130.477 171.72 130.75 172.996 131.297C174.272 131.844 175.275 132.664 176.004 133.758C176.746 134.852 177.117 136.219 177.117 137.859V146.902C177.117 148.061 177.189 149.012 177.332 149.754C177.475 150.483 177.684 151.121 177.957 151.668V152H172.273C172 151.427 171.792 150.711 171.648 149.852C171.518 148.979 171.453 148.107 171.453 147.234ZM172.195 139.129L172.234 142.313H169.09C168.348 142.313 167.703 142.397 167.156 142.566C166.609 142.736 166.16 142.977 165.809 143.289C165.457 143.589 165.197 143.94 165.027 144.344C164.871 144.747 164.793 145.19 164.793 145.672C164.793 146.154 164.904 146.59 165.125 146.981C165.346 147.358 165.665 147.658 166.082 147.879C166.499 148.087 166.987 148.191 167.547 148.191C168.393 148.191 169.129 148.022 169.754 147.684C170.379 147.345 170.861 146.928 171.199 146.434C171.551 145.939 171.733 145.47 171.746 145.027L173.23 147.41C173.022 147.944 172.736 148.497 172.371 149.07C172.02 149.643 171.57 150.184 171.023 150.691C170.477 151.186 169.819 151.596 169.051 151.922C168.283 152.234 167.371 152.391 166.316 152.391C164.975 152.391 163.758 152.124 162.664 151.59C161.583 151.043 160.724 150.294 160.086 149.344C159.461 148.38 159.148 147.287 159.148 146.063C159.148 144.956 159.357 143.973 159.773 143.113C160.19 142.254 160.802 141.531 161.609 140.945C162.43 140.346 163.452 139.897 164.676 139.598C165.9 139.285 167.319 139.129 168.934 139.129H172.195ZM187.078 135.242V152H181.434V130.867H186.727L187.078 135.242ZM186.297 140.691H184.734C184.734 139.22 184.91 137.866 185.262 136.629C185.626 135.379 186.154 134.298 186.844 133.387C187.547 132.462 188.413 131.746 189.441 131.238C190.47 130.731 191.661 130.477 193.016 130.477C193.953 130.477 194.812 130.62 195.594 130.906C196.375 131.18 197.046 131.616 197.605 132.215C198.178 132.801 198.621 133.569 198.934 134.52C199.246 135.457 199.402 136.583 199.402 137.898V152H193.777V138.523C193.777 137.56 193.647 136.818 193.387 136.297C193.126 135.776 192.755 135.412 192.273 135.203C191.805 134.995 191.238 134.891 190.574 134.891C189.845 134.891 189.207 135.04 188.66 135.34C188.126 135.639 187.684 136.056 187.332 136.59C186.98 137.111 186.72 137.723 186.551 138.426C186.382 139.129 186.297 139.884 186.297 140.691ZM198.875 140.047L196.863 140.301C196.863 138.921 197.033 137.638 197.371 136.453C197.723 135.268 198.237 134.227 198.914 133.328C199.604 132.43 200.457 131.733 201.473 131.238C202.488 130.731 203.66 130.477 204.988 130.477C206.004 130.477 206.928 130.626 207.762 130.926C208.595 131.212 209.305 131.675 209.891 132.313C210.49 132.938 210.945 133.758 211.258 134.773C211.583 135.789 211.746 137.033 211.746 138.504V152H206.102V138.504C206.102 137.527 205.971 136.785 205.711 136.277C205.464 135.757 205.099 135.398 204.617 135.203C204.148 134.995 203.589 134.891 202.938 134.891C202.26 134.891 201.668 135.027 201.16 135.301C200.652 135.561 200.229 135.926 199.891 136.395C199.552 136.863 199.298 137.41 199.129 138.035C198.96 138.647 198.875 139.318 198.875 140.047Z" fill="#2F2F2F"/>
<path d="M251.751 164.808C251.751 166.638 250.071 168.121 248 168.121C245.929 168.121 244.249 166.638 244.249 164.808C244.249 162.979 245.929 161.495 248 161.495C250.071 161.495 251.751 162.979 251.751 164.808Z" fill="white"/>
<path d="M235 25.2719C229.468 21.132 223.538 23.471 220.309 25.822C219.692 26.271 219.889 27.2002 220.61 27.4504C224.559 28.8214 231.096 30.9378 235 25.2719Z" fill="#7E5000" stroke="#7E5000"/>
<path d="M662.511 115.2C679.246 122.558 694.563 110.891 700.13 104.137L684.64 93.661L670.516 84.1087C669.629 83.5087 668.565 83.1927 667.478 83.2733C662.597 83.6353 655.41 85.0363 656.103 88.5913L641.858 101.232L662.511 115.2Z" fill="#F7CD84" stroke="black"/>
<path d="M684.64 93.661L670.516 84.1086C669.629 83.5087 668.565 83.1927 667.478 83.2733C662.597 83.6353 655.41 85.0363 656.103 88.5913C675.063 103.271 680.026 97.3463 684.64 93.661Z" fill="#7CAB89" stroke="black"/>
<path d="M658.474 107.52C657.961 104.698 659.506 99.3493 660.342 97.0275C658.409 99.6796 653.128 101.635 650.729 102.282L658.474 107.52Z" fill="#7CAB89" stroke="black"/>
<path d="M668.505 111.925C667.455 109.245 667.937 103.712 668.309 101.281C666.923 104.234 662.113 107.104 659.882 108.17L668.505 111.925Z" fill="#7CAB89" stroke="black"/>
<path d="M683.121 111.296C680.796 109.51 678.271 104.518 677.3 102.246C677.677 105.466 675.068 110.302 673.717 112.317L683.121 111.296Z" fill="#7CAB89" stroke="black"/>
<path d="M693.831 104.072C690.868 103.818 685.904 100.995 683.792 99.6158C685.951 102.102 686.544 107.521 686.571 109.919L693.831 104.072Z" fill="#7CAB89" stroke="black"/>
<path d="M605.715 76.7878C592.848 64.1252 599.044 46.2883 603.75 38.9526L619.24 49.4287L633.363 58.9811C634.25 59.581 634.92 60.4382 635.211 61.4496C636.514 65.9945 637.585 72.9809 633.878 73.5604L626.368 90.7559L605.715 76.7878Z" fill="#F7CD84" stroke="black"/>
<path d="M619.24 49.4288L633.363 58.9811C634.25 59.5811 634.92 60.4383 635.211 61.4497C636.514 65.9946 637.585 72.981 633.878 73.5605C613.105 61.367 617.207 54.8601 619.24 49.4288Z" fill="#7CAB89" stroke="black"/>
<path d="M614.587 77.8377C617.516 77.3442 622.216 74.1291 624.2 72.5833C622.266 75.2354 622.148 80.6833 622.331 83.0758L614.587 77.8377Z" fill="#7CAB89" stroke="black"/>
<path d="M606.879 70.2454C609.853 70.2868 615.093 67.9726 617.341 66.8103C614.928 69.0684 613.757 74.3996 613.473 76.7829L606.879 70.2454Z" fill="#7CAB89" stroke="black"/>
<path d="M602.532 56.7913C605.066 58.2917 610.797 58.884 613.347 58.9926C610.074 59.7444 606.237 63.7489 604.727 65.6573L602.532 56.7913Z" fill="#7CAB89" stroke="black"/>
<path d="M605.952 44.6371C607.206 47.2345 611.648 50.7735 613.712 52.2183C610.551 51.1066 605.057 52.4085 602.705 53.1984L605.952 44.6371Z" fill="#7CAB89" stroke="black"/>
<path d="M652.087 59.8885C652.951 58.4102 655.427 55.8363 658.423 57.3672C660.972 58.101 662.64 59.8069 663.156 60.5682C663.958 61.5235 665.106 64.2381 663.274 67.4545C664.596 68.9726 665.922 72.8043 663.474 78.1082C662.685 79.8182 661.503 81.6813 659.803 83.6693C661.988 86.9979 655.492 97.5653 646.108 104.106C640.584 107.957 634.059 110.412 627.715 109.175C626.821 109 625.931 108.753 625.049 108.426C624.313 107.595 623.671 106.713 623.118 105.787C620.119 100.776 619.715 94.5119 621.147 88.4618C623.377 79.0376 630.062 70.1331 638.336 67.294C639.046 66.3206 640.054 65.1198 641.247 63.9501C644.287 60.9699 648.527 58.1913 652.087 59.8885Z" fill="#FFBA43"/>
<path d="M652.087 59.8885C652.951 58.4102 655.427 55.8363 658.423 57.3672M652.087 59.8885C654.297 60.9702 659.627 63.9979 663.274 67.4545M652.087 59.8885C648.527 58.1913 644.287 60.9699 641.247 63.9501M658.423 57.3672C660.972 58.101 662.64 59.8069 663.156 60.5682M658.423 57.3672L661.188 51.8125M663.156 60.5682C663.958 61.5235 665.106 64.2381 663.274 67.4545M663.156 60.5682L668.072 56.4685M663.274 67.4545C664.596 68.9726 665.922 72.8043 663.474 78.1082M659.803 83.6693C658.786 80.8078 657.133 78.3675 655.154 76.3096M659.803 83.6693C661.503 81.6813 662.685 79.8182 663.474 78.1082M659.803 83.6693C661.988 86.9979 655.492 97.5653 646.108 104.106M638.336 67.294C640.095 67.6434 642.498 68.3586 645.081 69.4972M638.336 67.294C639.046 66.3206 640.054 65.1198 641.247 63.9501M638.336 67.294C630.062 70.1331 623.377 79.0376 621.147 88.4618M645.081 69.4972L646.071 78.713M645.081 69.4972C648.476 70.9933 652.182 73.2205 655.154 76.3096M646.071 78.713L623.118 105.787M646.071 78.713L655.154 76.3096M646.071 78.713L627.715 109.175M623.118 105.787C623.671 106.713 624.313 107.595 625.049 108.426C625.931 108.753 626.821 109 627.715 109.175M623.118 105.787C620.119 100.776 619.715 94.5119 621.147 88.4618M627.715 109.175C634.059 110.412 640.584 107.957 646.108 104.106M663.474 78.1082L668.482 79.3465C668.929 79.4572 669.402 79.2599 669.63 78.8667L675.919 68.0152C676.385 67.2127 676.22 66.2124 675.521 65.6026L673.574 63.9019M641.247 63.9501L638.385 59.6353C638.135 59.2596 638.183 58.7652 638.5 58.4339L647.66 48.8642C648.299 48.1974 649.319 48.0316 650.135 48.4623L652.921 49.9338M646.108 104.106L648.909 109.438C649.336 110.25 649.123 111.247 648.396 111.841L641.013 117.871C640.453 118.329 640.185 119.038 640.311 119.73L640.748 122.138M621.147 88.4618L616.421 87.5648C615.471 87.3845 614.514 87.8798 614.135 88.7478L610.308 97.5111C610.103 97.9793 609.721 98.3554 609.24 98.5611L607.188 99.4396" stroke="black"/>
<path d="M682.49 46.4199C679.319 50.7692 673.079 51.8268 668.551 48.7638C664.022 45.7008 662.937 39.6893 666.108 35.3401C669.279 30.9908 675.519 29.9332 680.047 32.9962C684.576 36.0592 685.661 42.0707 682.49 46.4199Z" fill="#F6CF84" stroke="black"/>
<path d="M333.04 148.2V156.68H385.12V148.2H333.04ZM325.28 170.52V179.24H392.32V170.52H325.28ZM333.04 120.12V151.72H343.6V128.76H384.56V120.12H333.04ZM449.674 114.04V157.96H460.394V114.04H449.674ZM402.634 146.92V155.56H409.114C423.914 155.56 433.754 155.24 444.794 153.32L443.594 144.92C432.874 146.68 423.514 146.92 409.114 146.92H402.634ZM402.554 118.28V126.68H426.154V132.68H402.634V152.04H413.114V140.6H436.634V118.28H402.554ZM411.114 161.32V187.32H460.394V161.32H411.114ZM449.914 169.64V178.92H421.514V169.64H449.914ZM519.908 114.04V188.12H530.468V114.04H519.908ZM528.068 142.92V151.8H541.188V142.92H528.068ZM472.068 125V133.48H515.188V125H472.068ZM493.748 137.64C482.948 137.64 474.948 145 474.948 155.32C474.948 165.64 482.948 173 493.748 173C504.548 173 512.548 165.64 512.548 155.32C512.548 145 504.548 137.64 493.748 137.64ZM493.748 146.28C498.788 146.28 502.388 149.64 502.388 155.32C502.388 161 498.788 164.36 493.748 164.36C488.708 164.36 485.108 161 485.108 155.32C485.108 149.64 488.708 146.28 493.748 146.28ZM488.388 115.24V128.2H499.028V115.24H488.388ZM545.981 155.48V164.04H613.101V155.48H545.981ZM573.981 161V188.2H584.541V161H573.981ZM579.341 116.52C563.581 116.52 552.621 123.08 552.621 133.24C552.621 143.32 563.581 149.8 579.341 149.8C595.181 149.8 606.141 143.32 606.141 133.24C606.141 123.08 595.181 116.52 579.341 116.52ZM579.341 125C589.101 125 595.181 127.88 595.181 133.24C595.181 138.52 589.101 141.4 579.341 141.4C569.661 141.4 563.501 138.52 563.501 133.24C563.501 127.88 569.661 125 579.341 125ZM647.095 118.28V123.64C647.095 134.28 637.895 146.04 621.175 148.92L625.735 157.72C644.935 153.96 656.375 139.72 656.375 123.64V118.28H647.095ZM649.255 118.28V123.64C649.255 139.96 660.615 153.96 679.815 157.72L684.375 148.92C667.575 146.04 658.455 134.52 658.455 123.64V118.28H649.255ZM619.655 170.44V179.08H686.695V170.44H619.655Z" fill="#444445"/>
<path d="M344.742 74.212V98.366H348.226V74.212H344.742ZM335.252 75.902C331.612 75.902 328.934 79.23 328.934 84.482C328.934 89.786 331.612 93.114 335.252 93.114C338.892 93.114 341.57 89.786 341.57 84.482C341.57 79.23 338.892 75.902 335.252 75.902ZM335.252 79.048C337.046 79.048 338.242 80.946 338.242 84.482C338.242 88.07 337.046 89.994 335.252 89.994C333.458 89.994 332.236 88.07 332.236 84.482C332.236 80.946 333.458 79.048 335.252 79.048ZM358 76.318V77.8C358 80.634 356.258 83.546 352.228 84.716L353.97 87.42C358.598 86.016 360.834 82.116 360.834 77.8V76.318H358ZM358.702 76.318V77.8C358.702 81.96 360.938 85.678 365.488 87.004L367.178 84.326C363.278 83.208 361.536 80.478 361.536 77.8V76.318H358.702ZM353.164 75.538V78.268H366.268V75.538H353.164ZM368.686 74.238V87.29H372.17V74.238H368.686ZM356.154 88.33V98.054H372.17V88.33H368.738V90.514H359.56V88.33H356.154ZM359.56 93.192H368.738V95.298H359.56V93.192ZM378.641 86.64V89.344H395.567V86.64H378.641ZM376.093 92.75V95.558H397.881V92.75H376.093ZM378.641 75.98V87.394H382.151V78.762H395.359V75.98H378.641ZM381.085 81.284V83.962H394.813V81.284H381.085ZM412.622 87.316V92.282H416.106V87.316H412.622ZM412.596 78.736V79.282C412.596 81.856 410.906 84.378 407.058 85.392L408.618 88.044C413.194 86.822 415.352 83.312 415.352 79.282V78.736H412.596ZM413.324 78.736V79.282C413.324 83.208 415.56 86.666 420.136 87.836L421.67 85.184C417.848 84.196 416.106 81.752 416.106 79.282V78.736H413.324ZM407.786 77.072V79.802H420.968V77.072H407.786ZM412.622 74.446V78.268H416.106V74.446H412.622ZM423.1 74.212V98.366H426.558V74.212H423.1ZM406.98 93.894C411.14 93.868 416.808 93.816 422.034 92.802L421.774 90.28C416.704 91.034 410.776 91.086 406.564 91.086L406.98 93.894ZM432.614 76.266V79.048H447.876V76.266H432.614ZM430.404 92.62V95.428H452.166V92.62H430.404ZM438.1 84.352V93.998H441.558V84.352H438.1ZM446.628 76.266V78.58C446.628 81.466 446.628 84.95 445.666 89.734L449.124 90.124C450.086 84.976 450.086 81.596 450.086 78.58V76.266H446.628ZM473.667 80.452V83.234H479.283V80.452H473.667ZM477.463 74.264V91.814H480.921V74.264H477.463ZM465.035 95.142V97.898H481.467V95.142H465.035ZM465.035 90.332V96.78H468.493V90.332H465.035ZM466.335 77.41V78.918C466.335 81.96 464.619 85.106 460.641 86.406L462.383 89.162C467.011 87.628 469.143 83.442 469.143 78.918V77.41H466.335ZM467.063 77.41V78.918C467.063 83.208 469.117 87.212 473.589 88.694L475.279 85.99C471.483 84.716 469.845 81.726 469.845 78.918V77.41H467.063ZM461.577 75.876V78.606H474.525V75.876H461.577ZM484.663 86.64V89.344H506.451V86.64H484.663ZM493.815 84.066V87.628H497.273V84.066H493.815ZM487.367 82.558V85.184H504.137V82.558H487.367ZM487.367 74.836V84.04H490.799V77.462H503.955V74.836H487.367ZM489.837 78.736V81.258H503.409V78.736H489.837ZM495.531 90.41C490.227 90.41 487.159 91.814 487.159 94.362C487.159 96.936 490.227 98.314 495.531 98.314C500.809 98.314 503.877 96.936 503.877 94.362C503.877 91.814 500.809 90.41 495.531 90.41ZM495.531 92.958C498.859 92.958 500.393 93.374 500.393 94.362C500.393 95.376 498.859 95.792 495.531 95.792C492.177 95.792 490.643 95.376 490.643 94.362C490.643 93.374 492.177 92.958 495.531 92.958ZM515.793 87.3037C515.793 86.6943 516.013 86.1865 516.453 85.7803C516.893 85.3656 517.465 85.1582 518.167 85.1582C518.87 85.1582 519.437 85.3656 519.868 85.7803C520.308 86.1865 520.528 86.6943 520.528 87.3037C520.528 87.9131 520.308 88.4251 519.868 88.8398C519.437 89.2461 518.87 89.4492 518.167 89.4492C517.465 89.4492 516.893 89.2461 516.453 88.8398C516.013 88.4251 515.793 87.9131 515.793 87.3037ZM530.611 76.214V87.836H542.077V76.214H530.611ZM538.671 78.944V85.106H534.017V78.944H538.671ZM545.405 74.238V91.788H548.863V74.238H545.405ZM547.875 81.18V84.014H552.061V81.18H547.875ZM533.341 95.142V97.898H549.721V95.142H533.341ZM533.341 90.072V96.52H536.799V90.072H533.341ZM562.329 76.448V77.046C562.329 78.97 560.015 81.128 554.737 81.648L555.959 84.326C562.147 83.728 565.397 80.712 565.397 77.046V76.448H562.329ZM564.019 76.448V77.046C564.019 80.738 567.295 83.728 573.457 84.326L574.679 81.648C569.401 81.154 567.087 78.996 567.087 77.046V76.448H564.019ZM555.803 75.122V77.852H573.639V75.122H555.803ZM553.827 85.938V88.694H575.615V85.938H553.827ZM562.953 82.844V87.16H566.385V82.844H562.953ZM556.245 90.436V93.166H569.505V98.314H572.963V90.436H556.245ZM580.293 84.976V87.732H597.219V84.976H580.293ZM577.771 92.776V95.61H599.559V92.776H577.771ZM586.897 86.224V93.686H590.355V86.224H586.897ZM580.293 75.876V86.172H583.751V78.658H597.037V75.876H580.293Z" fill="black"/>
<g filter="url(#filter1_d_15_99)">
<path d="M631.647 77.5156V96H627.369V82.3398L623.154 83.5713V80.3213L631.253 77.5156H631.647ZM644.956 75.2C641.316 75.2 638.664 77.306 638.664 80.348C638.664 83.338 641.316 85.496 644.956 85.496C648.622 85.496 651.274 83.338 651.274 80.348C651.274 77.306 648.622 75.2 644.956 75.2ZM644.956 78.008C646.724 78.008 647.972 78.84 647.972 80.348C647.972 81.83 646.724 82.662 644.956 82.662C643.214 82.662 641.966 81.83 641.966 80.348C641.966 78.84 643.214 78.008 644.956 78.008ZM643.344 87.888V97.586H646.802V87.888H643.344ZM653.874 74.238V98.314H657.306V74.238H653.874ZM637.65 89.708C641.81 89.682 647.504 89.63 652.73 88.59L652.496 86.068C647.4 86.848 641.446 86.9 637.234 86.9L637.65 89.708Z" fill="white"/>
<path d="M631.647 77.5156H632.147V77.0156H631.647V77.5156ZM631.647 96V96.5H632.147V96H631.647ZM627.369 96H626.869V96.5H627.369V96ZM627.369 82.3398H627.869V81.6729L627.228 81.8599L627.369 82.3398ZM623.154 83.5713H622.654V84.2383L623.294 84.0512L623.154 83.5713ZM623.154 80.3213L622.99 79.8488L622.654 79.9653V80.3213H623.154ZM631.253 77.5156V77.0156H631.169L631.09 77.0432L631.253 77.5156ZM631.147 77.5156V96H632.147V77.5156H631.147ZM631.647 95.5H627.369V96.5H631.647V95.5ZM627.869 96V82.3398H626.869V96H627.869ZM627.228 81.8599L623.013 83.0914L623.294 84.0512L627.509 82.8198L627.228 81.8599ZM623.654 83.5713V80.3213H622.654V83.5713H623.654ZM623.317 80.7937L631.417 77.9881L631.09 77.0432L622.99 79.8488L623.317 80.7937ZM631.253 78.0156H631.647V77.0156H631.253V78.0156ZM643.344 87.888V87.388H642.844V87.888H643.344ZM643.344 97.586H642.844V98.086H643.344V97.586ZM646.802 97.586V98.086H647.302V97.586H646.802ZM646.802 87.888H647.302V87.388H646.802V87.888ZM653.874 74.238V73.738H653.374V74.238H653.874ZM653.874 98.314H653.374V98.814H653.874V98.314ZM657.306 98.314V98.814H657.806V98.314H657.306ZM657.306 74.238H657.806V73.738H657.306V74.238ZM637.65 89.708L637.155 89.7813L637.219 90.2107L637.653 90.208L637.65 89.708ZM652.73 88.59L652.827 89.0804L653.269 88.9924L653.227 88.5438L652.73 88.59ZM652.496 86.068L652.993 86.0218L652.944 85.4935L652.42 85.5738L652.496 86.068ZM637.234 86.9V86.4H636.654L636.739 86.9733L637.234 86.9ZM644.956 74.7C641.142 74.7 638.164 76.9371 638.164 80.348H639.164C639.164 77.6749 641.489 75.7 644.956 75.7V74.7ZM638.164 80.348C638.164 83.7039 641.139 85.996 644.956 85.996V84.996C641.492 84.996 639.164 82.9721 639.164 80.348H638.164ZM644.956 85.996C648.797 85.996 651.774 83.7051 651.774 80.348H650.774C650.774 82.9709 648.446 84.996 644.956 84.996V85.996ZM651.774 80.348C651.774 76.9359 648.793 74.7 644.956 74.7V75.7C648.45 75.7 650.774 77.6761 650.774 80.348H651.774ZM644.956 78.508C645.769 78.508 646.407 78.7003 646.828 79.0137C647.233 79.3145 647.472 79.7498 647.472 80.348H648.472C648.472 79.4382 648.087 78.7035 647.425 78.2113C646.78 77.7317 645.91 77.508 644.956 77.508V78.508ZM647.472 80.348C647.472 80.9302 647.235 81.3594 646.83 81.6584C646.408 81.9697 645.769 82.162 644.956 82.162V83.162C645.91 83.162 646.779 82.9383 647.423 82.4631C648.084 81.9756 648.472 81.2478 648.472 80.348H647.472ZM644.956 82.162C644.157 82.162 643.524 81.9704 643.105 81.6593C642.702 81.3602 642.466 80.9305 642.466 80.348H641.466C641.466 81.2475 641.853 81.9748 642.509 82.4622C643.15 82.9376 644.012 83.162 644.956 83.162V82.162ZM642.466 80.348C642.466 79.7495 642.705 79.3137 643.107 79.0128C643.525 78.6997 644.157 78.508 644.956 78.508V77.508C644.012 77.508 643.149 77.7323 642.508 78.2122C641.85 78.7043 641.466 79.4385 641.466 80.348H642.466ZM642.844 87.888V97.586H643.844V87.888H642.844ZM643.344 98.086H646.802V97.086H643.344V98.086ZM647.302 97.586V87.888H646.302V97.586H647.302ZM646.802 87.388H643.344V88.388H646.802V87.388ZM653.374 74.238V98.314H654.374V74.238H653.374ZM653.874 98.814H657.306V97.814H653.874V98.814ZM657.806 98.314V74.238H656.806V98.314H657.806ZM657.306 73.738H653.874V74.738H657.306V73.738ZM637.653 90.208C641.807 90.182 647.547 90.1311 652.827 89.0804L652.632 88.0996C647.46 89.1289 641.812 89.182 637.646 89.208L637.653 90.208ZM653.227 88.5438L652.993 86.0218L651.998 86.1142L652.232 88.6362L653.227 88.5438ZM652.42 85.5738C647.367 86.3472 641.448 86.4 637.234 86.4V87.4C641.443 87.4 647.433 87.3488 652.571 86.5622L652.42 85.5738ZM636.739 86.9733L637.155 89.7813L638.144 89.6347L637.728 86.8267L636.739 86.9733Z" fill="#686A00"/>
</g>
<defs>
<filter id="filter0_d_15_99" x="0.736084" y="6.10098" width="320.232" height="186.149" filterUnits="userSpaceOnUse" color-interpolation-filters="sRGB">
<feFlood flood-opacity="0" result="BackgroundImageFix"/>
<feColorMatrix in="SourceAlpha" type="matrix" values="0 0 0 0 0 0 0 0 0 0 0 0 0 0 0 0 0 0 127 0" result="hardAlpha"/>
<feOffset dy="4"/>
<feGaussianBlur stdDeviation="2"/>
<feComposite in2="hardAlpha" operator="out"/>
<feColorMatrix type="matrix" values="0 0 0 0 0 0 0 0 0 0 0 0 0 0 0 0 0 0 0.25 0"/>
<feBlend mode="normal" in2="BackgroundImageFix" result="effect1_dropShadow_15_99"/>
<feBlend mode="normal" in="SourceGraphic" in2="effect1_dropShadow_15_99" result="shape"/>
</filter>
<filter id="filter1_d_15_99" x="619.154" y="74.238" width="42.1519" height="32.076" filterUnits="userSpaceOnUse" color-interpolation-filters="sRGB">
<feFlood flood-opacity="0" result="BackgroundImageFix"/>
<feColorMatrix in="SourceAlpha" type="matrix" values="0 0 0 0 0 0 0 0 0 0 0 0 0 0 0 0 0 0 127 0" result="hardAlpha"/>
<feOffset dy="4"/>
<feGaussianBlur stdDeviation="2"/>
<feComposite in2="hardAlpha" operator="out"/>
<feColorMatrix type="matrix" values="0 0 0 0 1 0 0 0 0 0.900667 0 0 0 0 0.379167 0 0 0 1 0"/>
<feBlend mode="normal" in2="BackgroundImageFix" result="effect1_dropShadow_15_99"/>
<feBlend mode="normal" in="SourceGraphic" in2="effect1_dropShadow_15_99" result="shape"/>
</filter>
</defs>
</svg>
